<?xml version="1.0" encoding="utf-8"?>
<!-- Generator: Adobe Illustrator 13.0.0, SVG Export Plug-In . SVG Version: 6.00 Build 14948)  -->
<!DOCTYPE svg PUBLIC "-//W3C//DTD SVG 1.1//EN" "http://www.w3.org/Graphics/SVG/1.1/DTD/svg11.dtd">
<svg version="1.1" id="Layer_1" xmlns="http://www.w3.org/2000/svg" xmlns:xlink="http://www.w3.org/1999/xlink" x="0px" y="0px"
	 width="567.044px" height="567px" viewBox="0 0 567.044 567" enable-background="new 0 0 567.044 567" xml:space="preserve">
<path fill-rule="evenodd" clip-rule="evenodd" fill="#FFFFFF" d="M1.044,0c188.668,0,377.332,0,566,0c0,188.996,0,378.006,0,567
	c-188.996,0-378.005,0-567,0c0-188.002,0-375.996,0-564C-0.042,1.581-0.121,0.168,1.044,0z M388.044,21
	c-23.922,28.396-19.035,83.18-44,114c-20.647,25.489-57.109,39.649-91,49c-36.812,10.157-78.166,14.945-123,15
	c-15.79-16.322-30.371-43.693-33-75c-1.766-21.031,3.509-44.629,6-61c-23.762,19.937-42.267,52.598-39,95
	c2.611,33.894,21.461,60.405,35,82c-20.573,86.572-40.503,176.854-60,264c-2.717,12.146-8.922,25.234-5,38
	c26.338,10.384,33.475-16.01,42-34c11.326-23.9,19.777-47.45,29-71c4.596-11.736,8.687-25.916,19-31c5.724,12.978,4.614,31.355,6,50
	c1.608,21.635-0.854,67.875,23,64c13.116-2.131,8.9-24.523,9-41c0.158-25.981,3.365-68.754,15-87c8.461-13.27,23.363-13.113,42-15
	c31.464-3.185,51.543-6.332,85-9c16.212,7.214,11,31.61,11,56c0,15.35-0.821,30.754-1,44c-0.356,26.397-7.402,73.636,14,73
	c12.158-0.361,14.929-17.523,17-35c3.941-33.262,5.9-59.407,10-94c1.998-16.86,2.61-35.922,6-47c3.519-11.499,19.84-24.251,30-20
	c8.143,3.407,9.151,19.63,12,34c2.159,10.894,6.072,29.061,8,39c4.693,24.201,6.396,69.626,27,67c12.964-1.652,9.772-27.024,9-41
	c-2.925-52.932-8.336-105.082-9-150c-0.639-43.241,9.107-79.108,31-101c9.688-9.688,21.931-14.261,34-21
	c12.27-6.851,29.74-16.686,30-37c-15.808,4.059-57.342,21.55-67,0c47.361-12.691,84.854-45.744,79-105
	c-24.872,5.461-38.731,21.935-60,31c-14.9-12.15-37.084,4.33-48,8c-2.4-13.6-2.631-29.369-7-41c-9.5,3.638-14.768,14.644-19,24
	c-4.547,10.05-6.224,22.16-11,32c-2.964-21.703-1.93-47.404-11-63C388.711,21,388.377,21,388.044,21z M34.044,61
	c-9.163,13.848-24.051,64.104-2,70c0.436-8.287-0.601-15.549,0-22c2.526-27.113,18.637-39.783,29-59
	C49.984,44.005,38.348,54.496,34.044,61z M49.044,131c-4.521-22.086,8.989-37.468,18-52C47.052,72.428,31.225,124.244,49.044,131z"
	/>
<path fill-rule="evenodd" clip-rule="evenodd" d="M389.044,21c9.07,15.596,8.036,41.297,11,63c4.776-9.84,6.453-21.95,11-32
	c4.232-9.356,9.5-20.362,19-24c4.369,11.631,4.6,27.4,7,41c10.916-3.67,33.1-20.15,48-8c21.269-9.065,35.128-25.539,60-31
	c5.854,59.256-31.639,92.309-79,105c9.658,21.55,51.192,4.059,67,0c-0.26,20.314-17.73,30.149-30,37
	c-12.069,6.739-24.313,11.313-34,21c-21.893,21.892-31.639,57.759-31,101c0.664,44.918,6.075,97.068,9,150
	c0.772,13.976,3.964,39.348-9,41c-20.604,2.626-22.307-42.799-27-67c-1.928-9.939-5.841-28.106-8-39
	c-2.849-14.37-3.857-30.593-12-34c-10.16-4.251-26.481,8.501-30,20c-3.39,11.078-4.002,30.14-6,47c-4.1,34.593-6.059,60.738-10,94
	c-2.071,17.477-4.842,34.639-17,35c-21.402,0.636-14.356-46.603-14-73c0.179-13.246,1-28.65,1-44c0-24.39,5.212-48.786-11-56
	c-33.457,2.668-53.536,5.815-85,9c-18.637,1.887-33.539,1.73-42,15c-11.635,18.246-14.842,61.019-15,87
	c-0.1,16.477,4.116,38.869-9,41c-23.854,3.875-21.392-42.365-23-64c-1.386-18.645-0.276-37.022-6-50
	c-10.313,5.084-14.404,19.264-19,31c-9.223,23.55-17.674,47.1-29,71c-8.525,17.99-15.662,44.384-42,34
	c-3.922-12.766,2.283-25.854,5-38c19.497-87.146,39.427-177.428,60-264c-13.539-21.595-32.389-48.106-35-82
	c-3.267-42.402,15.238-75.063,39-95c-2.491,16.371-7.766,39.969-6,61c2.629,31.307,17.21,58.678,33,75
	c44.834-0.055,86.188-4.843,123-15c33.891-9.351,70.353-23.511,91-49c24.965-30.82,20.078-85.604,44-114
	C388.377,21,388.711,21,389.044,21z"/>
<path fill-rule="evenodd" clip-rule="evenodd" d="M448.044,104c2.333,0,4.667,0,7,0c2.675-2.32,4.086-7.82,2-12
	C448.743,84.38,440.266,98.263,448.044,104z"/>
<path fill-rule="evenodd" clip-rule="evenodd" d="M373.044,183c-5.473,11.891-5.602,36.294,6,38c23.356,3.435,32.375-29.31,23-49
	C390.066,167.128,378.119,171.973,373.044,183z"/>
<path fill-rule="evenodd" clip-rule="evenodd" d="M359.044,180c-9.869,10.12-5.017,28.15-7,46c4.076,0.827,3.443,0.153,8,0
	c5.542-11.125,3.494-29.839,4-46C362.377,180,360.711,180,359.044,180z"/>
<path fill-rule="evenodd" clip-rule="evenodd" d="M342.044,187c-10.121-2.463-21.957,0.237-28,5c-0.865,18.67-5.298,33.149-4,51
	c4.488-0.178,7.604-1.73,10-4c0.571-7.557,0.881-15.764,6-21c4.512,4.488,4.669,13.331,8,19c2.945,1.273,6.309-0.325,10-1
	c2.136-8.245-3.162-16.518-5-24C344.041,207.019,350.228,193.395,342.044,187z"/>
<path fill-rule="evenodd" clip-rule="evenodd" d="M271.044,199c-4.58,18.485-7.25,43.997-7,64c5.135,0.802,7.595-1.072,11-2
	c3.908-8.759,1.938-23.396,8-30c5.288,7.378,6.773,18.56,14,24c5.094,0.427,7.798-1.536,11-3c-1.233-11.1-7.493-17.174-9-28
	c5.104-6.706,12.932-18.05,6-28C295.992,190.184,278.191,193.815,271.044,199z"/>
<path fill-rule="evenodd" clip-rule="evenodd" d="M218.044,226c-8.808,19.931-21.451,46.766-22,66c23.219,4.127,12.845-33.754,39-30
	c5.142,4.191,3.617,15.05,10,18c19.603,1.922,10.849-22.051,8-41c-2.146-14.278-5.356-27.638-7-36
	C226.313,198.251,223.755,213.077,218.044,226z"/>
<path fill-rule="evenodd" clip-rule="evenodd" d="M198.044,225c-4.399-17.701-46.139-8.654-53,2c-5.62,8.727-6.152,28.194-8,40
	c-2.304,14.719-5.32,28.198-5,41c36.088,7.729,77.137-20.978,58-56C194.315,242.039,200.459,234.718,198.044,225z"/>
<path fill-rule="evenodd" clip-rule="evenodd" d="M346.044,238c-10.853,10.566-21.518,44.527-18,70c4.798,34.749,52.02,26.91,65,2
	c4.669-8.96,7.357-27.086,8-44c0.841-22.147-2.209-42.297-29-39C359.521,228.541,352.372,231.839,346.044,238z"/>
<path fill-rule="evenodd" clip-rule="evenodd" d="M310.044,260c-13.616-3.408-29.796,2.552-40,8c-4.388,24.612-8.326,49.674-8,79
	c22.723,7.263,15.482-23.757,25-33c6.621,7.046,7.097,20.237,15,26c27.268,2.983,10.107-23.452,7-35
	C318.912,295.454,330.915,265.224,310.044,260z"/>
<path fill-rule="evenodd" clip-rule="evenodd" d="M253.044,288c-7.747-10.826-31.44-2.597-41,3c-2.807,21.979-9.277,45.912-7,67
	c3.17,1.375,10.051-0.948,13-3c2.923-8.077,1.291-20.709,8-25c4.588,6.412,5.713,16.287,11,22c23.292,3.234,9.729-20.157,7-30
	C250.636,314.163,261.069,299.215,253.044,288z"/>
<path fill-rule="evenodd" clip-rule="evenodd" d="M169.044,308c-3.432,17.605-10.439,39.903-7,58c13.945-1.521,35.066-0.753,32-16
	c-6.26-3.799-15.241,3.376-19-1c-0.846-11.846,11.765-10.234,17-16c0-2.333,0-4.667,0-7c-3.409-1.924-11.441,0.774-13-3
	c0.611-13.056,22.787-4.547,21-20C190.748,299.337,178.094,305.247,169.044,308z"/>
<path fill-rule="evenodd" clip-rule="evenodd" d="M161.044,325c-2.732-11.772-19.5-7.9-30-4c-5.353,13.921-10.191,38.101-8,53
	c13.227,1.228,8.609-15.391,14-22C149.615,348.16,164.434,339.608,161.044,325z"/>
<path fill-rule="evenodd" clip-rule="evenodd" d="M61.044,50c-10.363,19.217-26.474,31.887-29,59c-0.601,6.451,0.436,13.713,0,22
	c-22.051-5.896-7.163-56.152,2-70C38.348,54.496,49.984,44.005,61.044,50z"/>
<path fill-rule="evenodd" clip-rule="evenodd" d="M67.044,79c-9.011,14.532-22.521,29.914-18,52
	C31.225,124.244,47.052,72.428,67.044,79z"/>
<path fill-rule="evenodd" clip-rule="evenodd" d="M390.044,180c5.562,6.427,4.337,27.916-4,30
	C379.58,205.18,380.819,181.52,390.044,180z"/>
<path fill-rule="evenodd" clip-rule="evenodd" d="M332.044,196c2.827,4.912-0.105,11.591-7,10
	C324.469,199.758,325.454,195.077,332.044,196z"/>
<path fill-rule="evenodd" clip-rule="evenodd" d="M292.044,206c1.245,6.934-3.924,12.713-8,11c-4.402-0.771-1.358-9.518,0-11
	C287.645,205.649,288.863,204.471,292.044,206z"/>
<path fill-rule="evenodd" clip-rule="evenodd" d="M232.044,232c3.002,5.031,5.789,14.964-4,15
	C227.438,240.061,230.189,236.479,232.044,232z"/>
<path fill-rule="evenodd" clip-rule="evenodd" d="M176.044,238c-1.874,5.629-6.037,13.731-14,10
	C160.915,238.486,170.19,228.637,176.044,238z"/>
<path fill-rule="evenodd" clip-rule="evenodd" d="M371.044,248c10.049,10.09,4.437,62.927-10,61
	C350.348,307.572,349.522,244.182,371.044,248z"/>
<path fill-rule="evenodd" clip-rule="evenodd" d="M173.044,271c0.147,10.481-5.04,15.627-14,17
	C153.363,279.639,161.858,261.166,173.044,271z"/>
<path fill-rule="evenodd" clip-rule="evenodd" d="M300.044,279c1.051,10.058-5.301,16.896-13,15
	C282.131,284.116,291.341,272.066,300.044,279z"/>
<path fill-rule="evenodd" clip-rule="evenodd" d="M237.044,299c0.655,8.989-1.894,14.772-11,14
	C223.104,302.895,229.993,295.902,237.044,299z"/>
<path fill-rule="evenodd" clip-rule="evenodd" d="M148.044,331c-0.282,5.385-3.371,7.963-8,9
	C135.732,333.894,142.707,324.538,148.044,331z"/>
</svg>
